<svg xmlns="http://www.w3.org/2000/svg" width="196" height="38" viewBox="0 0 196 38" fill="none"><path d="M147.418 12.2761H157.23V14.5499H149.853V17.4146H155.811V19.6714H149.853V22.6426H157.23V24.8983H147.418V12.2761ZM97.6366 12.0969C101.379 12.0436 104.189 14.8369 104.136 18.5781C104.19 22.3206 101.379 25.1308 97.6366 25.0775C93.8942 25.1308 91.1021 22.3206 91.1554 18.5781C91.1021 14.8357 93.8942 12.0436 97.6366 12.0969ZM97.6366 22.7322C99.9637 22.7322 101.557 20.9778 101.557 18.5781C101.557 16.1785 99.9637 14.4603 97.6366 14.4603C95.3095 14.4603 93.7332 16.2329 93.7332 18.5781C93.7332 20.9234 95.2914 22.7322 97.6366 22.7322ZM129.798 17.4169H123.013V12.2761H120.578V24.8983H123.013V19.7145H129.798V24.8983H132.233V12.2761H129.798V17.4169ZM163.063 12.2761H160.628V24.8983H169.581V22.6426H163.063V12.2761ZM177.518 12.2761C181.278 12.2217 184.393 14.872 184.34 18.5781C184.393 22.3024 181.278 24.9516 177.518 24.8983H172.433V12.2761H177.518ZM177.518 22.6426C179.935 22.6426 181.762 20.9778 181.762 18.5781C181.762 16.1785 179.936 14.5499 177.518 14.5499H174.868V22.6426H177.518ZM85.9149 21.6243L79.6775 12.2761H76.4329V24.8983H78.8088V15.2655L85.2447 24.9028L88.2738 24.8983V12.2761H85.9149V21.6243ZM64.6364 12.2761V14.5318H67.6235V22.6426H64.6364V24.8983H73.033V22.6426H70.0583V14.5318H73.033V12.2761H64.6364ZM135.629 12.2761V14.5318H138.616V22.6426H135.629V24.8983H144.026V22.6426H141.051V14.5318H144.026V12.2761H135.629ZM41.4617 20.3076L46.7294 24.8983H43.2149L37.9517 20.3076V24.8983H35.5169V12.2761H42.0877C44.594 12.2761 46.3665 13.9942 46.3665 16.4302C46.3665 18.8662 44.696 20.3087 42.2782 20.3087L41.4617 20.3076ZM37.9506 18.3457H41.8892C42.9813 18.3457 43.7876 17.5575 43.7876 16.4302C43.7876 15.303 42.9813 14.5499 41.8892 14.5499H37.9506V18.3457ZM58.8084 17.4169H52.0232V12.2761H49.5884V24.8983H52.0232V19.7145H58.8084V24.8983H61.2432V12.2761H58.8084V17.4169ZM17.7562 12.2761L18.8608 14.5499H21.4442V20.3065L17.7539 22.9613L14.0694 20.3076L14.0716 14.5499H16.6505L17.7562 12.2761H11.6504V21.3816L17.7528 25.7738L23.8586 21.3827V12.2761H17.7562ZM113.928 17.6278L111.021 16.961C109.484 16.5776 109.272 16.1342 109.272 15.7112C109.272 14.4887 111.244 14.3571 112.093 14.3571C113.717 14.3571 115.076 14.8244 116.242 15.6375L117.482 13.8343C117.282 13.6665 117 13.4419 116.698 13.2673C115.769 12.7014 114.273 12.0981 112.111 12.0981C108.814 12.0981 106.599 13.5837 106.599 15.794C106.599 17.4271 107.771 18.5419 110.092 19.1112L112.96 19.7451C114.802 20.2328 114.949 20.6852 114.949 21.2285C114.949 22.282 113.988 22.8162 112.091 22.8162C110.371 22.8162 108.853 22.341 107.326 21.3249L106.118 23.1053L106.739 23.5499C108.216 24.5331 110.131 25.0741 112.129 25.0741C115.488 25.0741 117.66 23.5318 117.66 21.1445C117.66 19.3788 116.476 18.2617 113.926 17.6267L113.928 17.6278Z" fill="#211F1D"></path></svg>